Coordinates
version=1
nRows=11
nColumns=63
inDegrees=yes

Units are S.I. units (second, meters, Newtons, ...)
If the header above contains a line with 'inDegrees', this indicates whether rotational values are in degrees (yes) or radians (no).

endheader
time	pelvis_tilt	pelvis_list	pelvis_rotation	pelvis_tx	pelvis_ty	pelvis_tz	hip_flexion_r	hip_adduction_r	hip_rotation_r	knee_angle_r	knee_angle_r_beta	ankle_angle_r	subtalar_angle_r	mtp_angle_r	hip_flexion_l	hip_adduction_l	hip_rotation_l	knee_angle_l	knee_angle_l_beta	ankle_angle_l	subtalar_angle_l	mtp_angle_l	L5_S1_Flex_Ext	L5_S1_Lat_Bending	L5_S1_axial_rotation	L4_L5_Flex_Ext	L4_L5_Lat_Bending	L4_L5_axial_rotation	L3_L4_Flex_Ext	L3_L4_Lat_Bending	L3_L4_axial_rotation	L2_L3_Flex_Ext	L2_L3_Lat_Bending	L2_L3_axial_rotation	L1_L2_Flex_Ext	L1_L2_Lat_Bending	L1_L2_axial_rotation	L1_T12_Flex_Ext	L1_T12_Lat_Bending	L1_T12_axial_rotation	Abs_r3	Abs_r2	Abs_r1	Abs_t1	Abs_t2	neck_flexion	neck_bending	neck_rotation	arm_flex_r	arm_add_r	arm_rot_r	elbow_flex_r	pro_sup_r	wrist_flex_r	wrist_dev_r	arm_flex_l	arm_add_l	arm_rot_l	elbow_flex_l	pro_sup_l	wrist_flex_l	wrist_dev_l
      5.15254237	     -2.32531321	      2.82355124	     94.91440255	      0.33314442	      0.95206139	      0.62542492	     -2.90454391	     -0.97040945	      0.92957019	      1.51321599	      0.02641060	     20.88875579	    -16.97177543	      0.00000000	     -0.99034425	     -0.71364173	     21.29388463	      1.60766784	      0.02805910	     21.51178848	     -6.80501256	      0.00000000	     -0.19754136	     -0.77366028	     -2.28927785	     -0.36685407	     -1.02896818	     -2.43235772	     -0.32454071	     -1.88107761	     -2.43235772	     -0.22577003	     -1.88107761	     -2.00311812	     -0.18343691	     -1.57764805	     -1.86003826	     -0.11287514	     -1.19839978	     -1.71695839	     -1.41101821	     -8.75179985	    -12.73227664	      0.00000000	      0.00000000	     25.24943494	     16.51429562	    -11.37663714	     46.73585709	     -3.07942533	     -9.43564127	    129.93837490	     87.69658928	     10.89729251	     11.26675220	     11.97711928	    -13.51603218	    112.61837217	     11.72347304	      8.35206233	     -9.14880165	    -10.70897256
      5.16949153	     -2.33917768	      2.84563494	     94.85011070	      0.33355963	      0.95232931	      0.62517670	     -2.93996792	     -0.98937788	      1.02914398	      1.45563690	      0.02540566	     20.79106571	    -16.81940524	      0.00000000	     -1.05708765	     -0.71976923	     21.84084201	      1.51863760	      0.02650523	     21.31584703	     -7.72092488	      0.00000000	     -0.19487983	     -0.78185732	     -2.27353752	     -0.36191134	     -1.03987023	     -2.41563361	     -0.32016808	     -1.90100789	     -2.41563361	     -0.22272816	     -1.90100789	     -1.98934533	     -0.18096541	     -1.59436345	     -1.84724923	     -0.11135434	     -1.21109699	     -1.70515314	     -1.39200716	     -8.84452637	    -12.64473361	      0.00000000	      0.00000000	     25.23265721	     16.54300573	    -11.60510685	     46.57410999	     -3.25456224	     -9.20790840	    129.91192516	     87.57290342	     10.02848077	     11.18401732	     11.98518158	    -13.46153431	    114.21390726	     11.50102003	      6.57723437	     -8.80980662	    -10.92028966
      5.18644068	     -2.39103831	      2.86097911	     94.44649021	      0.33437534	      0.95265492	      0.62512614	     -2.91332412	     -1.07022893	      1.69910026	      1.40226598	      0.02447416	     20.62881120	    -16.97294294	      0.00000000	     -1.08274809	     -0.68469134	     20.09013400	      1.49811575	      0.02614705	     21.78817447	     -5.76931618	      0.00000000	     -0.19297242	     -0.79586425	     -2.19432730	     -0.35836908	     -1.05849945	     -2.33147276	     -0.31703438	     -1.93506433	     -2.33147276	     -0.22054818	     -1.93506433	     -1.92003639	     -0.17919419	     -1.62292637	     -1.78289093	     -0.11026444	     -1.23279372	     -1.64574548	     -1.37838268	     -9.00297552	    -12.20419016	      0.00000000	      0.00000000	     25.19273022	     16.56569815	    -11.97290708	     46.55950597	     -3.42585972	     -9.19073684	    129.90287801	     87.56941712	     10.06701823	     11.68465996	     11.95987763	    -13.50905137	    114.16738946	     11.40651091	      6.45126780	     -8.58438886	    -10.95310358
      5.20338983	     -2.43386775	      2.85966421	     94.00008721	      0.33525452	      0.95292378	      0.62529033	     -2.83732179	     -1.14212337	      2.42184676	      1.40423998	      0.02450861	     20.44623703	    -17.20433198	      0.00000000	     -1.08803438	     -0.65622130	     18.64084910	      1.44615281	      0.02524013	     22.14863598	     -4.25423439	      0.00000000	     -0.19161232	     -0.80964847	     -2.13551473	     -0.35584325	     -1.07683247	     -2.26898441	     -0.31479989	     -1.96857929	     -2.26898441	     -0.21899373	     -1.96857929	     -1.86857539	     -0.17793120	     -1.65103516	     -1.73510572	     -0.10948728	     -1.25414548	     -1.60163605	     -1.36866767	     -9.15890543	    -11.87709230	      0.00000000	      0.00000000	     25.16539770	     16.56867190	    -12.11680054	     46.63896090	     -3.48018221	     -8.99393574	    129.75656083	     87.56694808	     10.14921938	     12.02519656	     11.86676571	    -13.65600201	    112.65528085	     11.52518749	      7.42819768	     -8.66744563	    -11.00595695
      5.22033898	     -2.45707537	      2.88028794	     93.71879011	      0.33580609	      0.95315646	      0.62558795	     -2.77029545	     -1.17282857	      2.51026185	      1.51719705	      0.02648008	     20.33851897	    -17.08113214	      0.00000000	     -1.10697362	     -0.63245572	     18.42006392	      1.36130035	      0.02375917	     22.21059045	     -4.18172404	      0.00000000	     -0.20025671	     -0.82043497	     -2.12435428	     -0.37189673	     -1.09117850	     -2.25712643	     -0.32900175	     -1.99480558	     -2.25712643	     -0.22887339	     -1.99480558	     -1.85881000	     -0.18595838	     -1.67303098	     -1.72603786	     -0.11442668	     -1.27085376	     -1.59326571	     -1.43041364	     -9.28092442	    -11.81502122	      0.00000000	      0.00000000	     25.08946862	     16.73742652	    -11.94790630	     46.79075480	     -3.54199990	     -8.58269173	    129.63688446	     87.61522370	      9.93327124	     12.36703150	     11.93994655	    -13.64779875	    113.97639260	     11.32930053	      6.34633661	     -8.41335234	    -11.25533581
      5.23728814	     -2.50118548	      2.90110097	     93.21936361	      0.33662197	      0.95330280	      0.62607216	     -2.67482752	     -1.22342761	      2.85194500	      1.69146359	      0.02952161	     20.15737855	    -17.05257626	      0.00000000	     -1.10833167	     -0.58843592	     17.01729219	      1.33982948	      0.02338444	     22.55854907	     -2.74557728	      0.00000000	     -0.21120233	     -0.83541956	     -2.10703338	     -0.39222385	     -1.11110801	     -2.23872297	     -0.34698431	     -2.03123912	     -2.23872297	     -0.24138314	     -2.03123912	     -1.84365421	     -0.19612249	     -1.70358757	     -1.71196462	     -0.12068101	     -1.29406490	     -1.58027504	     -1.50859713	     -9.45043315	    -11.71868756	      0.00000000	      0.00000000	     25.03619567	     17.08076698	    -11.46159261	     47.03639090	     -3.51457335	     -8.03423760	    129.46275327	     87.65938293	     10.06388528	     12.65228318	     11.93379067	    -13.76950100	    113.90350244	     11.29620749	      6.57728723	     -8.37000553	    -11.44834507
      5.25423729	     -2.57517276	      2.91594683	     92.72990138	      0.33736618	      0.95340477	      0.62675712	     -2.57186917	     -1.29927365	      3.06491471	      1.89422528	      0.03306047	     20.05562699	    -16.85312669	      0.00000000	     -1.07596504	     -0.50838490	     15.42629385	      1.36179099	      0.02376774	     22.90854683	     -1.09134438	      0.00000000	     -0.22661744	     -0.85427455	     -2.10044141	     -0.42085125	     -1.13618515	     -2.23171900	     -0.37230979	     -2.07708314	     -2.23171900	     -0.25900107	     -2.07708314	     -1.83788623	     -0.21043695	     -1.74203666	     -1.70660865	     -0.12948921	     -1.32327128	     -1.57533106	     -1.61870571	     -9.66372454	    -11.68202499	      0.00000000	      0.00000000	     25.01352655	     17.58461682	    -10.70731837	     47.33122101	     -3.45503562	     -7.46253690	    129.33772918	     87.73040503	     10.65340488	     12.90307669	     12.01220041	    -13.82893804	    115.06729460	     11.08918375	      6.06141410	     -8.23254360	    -11.69140591
      5.27118644	     -2.70208581	      2.86235249	     92.29202817	      0.33807151	      0.95344240	      0.62749836	     -2.42486219	     -1.43074765	      3.41476055	      2.04564799	      0.03570329	     20.00581520	    -16.78504966	      0.00000000	     -0.92608682	     -0.38741134	     12.68241536	      1.47998531	      0.02583062	     23.48033908	      2.19912973	      0.00000000	     -0.23536045	     -0.88183769	     -2.08939683	     -0.43708788	     -1.17284413	     -2.21998413	     -0.38667368	     -2.14410017	     -2.21998413	     -0.26899345	     -2.14410017	     -1.82822223	     -0.21855571	     -1.79824343	     -1.69763492	     -0.13448496	     -1.36596659	     -1.56704762	     -1.68115613	     -9.97552437	    -11.62059835	      0.00000000	      0.00000000	     25.06422498	     18.20777073	    -10.02517775	     47.57088618	     -3.51770823	     -6.82875753	    129.35155640	     87.84781182	     11.19165049	     12.88992171	     12.06079944	    -14.03711551	    114.72562676	     11.10654878	      6.79222586	     -8.19887269	    -11.83492029
      5.28813559	     -2.72243460	      2.78082874	     91.92716471	      0.33859042	      0.95342958	      0.62805192	     -2.24625679	     -1.45525824	      3.52064478	      2.20577476	      0.03849803	     20.12947137	    -16.43920609	      0.00000000	     -0.87618116	     -0.33913025	     13.81621510	      1.37836672	      0.02405704	     23.04305428	      0.09881159	      0.00000000	     -0.24145056	     -0.89611083	     -2.04201484	     -0.44839783	     -1.19182740	     -2.16964077	     -0.39667912	     -2.17880386	     -2.16964077	     -0.27595384	     -2.17880386	     -1.78676299	     -0.22421099	     -1.82734920	     -1.65913706	     -0.13796485	     -1.38807567	     -1.53151113	     -1.72465717	    -10.13698489	    -11.35707396	      0.00000000	      0.00000000	     25.25345806	     18.79670316	     -9.61723380	     47.79943747	     -3.93652934	     -6.26150603	    129.51134175	     87.94389770	     11.81401480	     12.71259428	     12.31571424	    -14.00740735	    116.90478263	     10.90370811	      5.73020150	     -8.12818268	    -11.94995303
      5.30508475	     -2.79827079	      2.63545691	     91.73305960	      0.33902144	      0.95344545	      0.62845931	     -2.02950191	     -1.53333650	      3.72857879	      2.31993464	      0.04049050	     20.27410955	    -16.35821234	      0.00000000	     -0.68573232	     -0.26747215	     13.06805414	      1.45279634	      0.02535608	     23.02862668	      0.87938780	      0.00000000	     -0.23656985	     -0.91832175	     -1.98172174	     -0.43933387	     -1.22136793	     -2.10557935	     -0.38866061	     -2.23280751	     -2.10557935	     -0.27037568	     -2.23280751	     -1.73400653	     -0.21967876	     -1.87264172	     -1.61014892	     -0.13517601	     -1.42248039	     -1.48629131	     -1.68979478	    -10.38823932	    -11.02174182	      0.00000000	      0.00000000	     25.53221672	     19.20482076	     -9.69248123	     47.95012014	     -4.58407895	     -5.77381834	    129.76796049	     88.10351664	     12.51567248	     12.58504885	     12.54073763	    -14.08123562	    117.70043650	     10.89061299	      5.69761309	     -8.07441668	    -11.96216371
      5.32203390	     -2.88655484	      2.48031416	     91.70570912	      0.33936687	      0.95360233	      0.62865783	     -1.85773688	     -1.62184482	      4.03408746	      2.32895904	      0.04064800	     20.35692240	    -16.48274426	      0.00000000	     -0.43762662	     -0.21006005	     11.41612722	      1.65427801	      0.02887260	     23.18537148	      3.14365157	      0.00000000	     -0.22585485	     -0.94155528	     -1.92832650	     -0.41943503	     -1.25226852	     -2.04884691	     -0.37105693	     -2.28929750	     -2.04884691	     -0.25812950	     -2.28929750	     -1.68728569	     -0.20972881	     -1.92001952	     -1.56676529	     -0.12905346	     -1.45846912	     -1.44624488	     -1.61325858	    -10.65106160	    -10.72477352	      0.00000000	      0.00000000	     25.85529526	     19.47280303	    -10.07963176	     47.99833600	     -5.36802126	     -5.22828500	    129.99546301	     88.28987892	     12.94103693	     12.59317466	     12.68420434	    -14.19011888	    117.38252530	     11.01789164	      6.26577456	     -8.20560886	    -11.84746917
